<?xml version="1.0" encoding="iso-8859-1"?>
<!-- Generator: Adobe Illustrator 16.0.0, SVG Export Plug-In . SVG Version: 6.00 Build 0)  -->
<!DOCTYPE svg PUBLIC "-//W3C//DTD SVG 1.1//EN" "http://www.w3.org/Graphics/SVG/1.1/DTD/svg11.dtd">
<svg version="1.1" id="Capa_1" xmlns="http://www.w3.org/2000/svg" xmlns:xlink="http://www.w3.org/1999/xlink" x="0px" y="0px"
	 width="500" height="300" viewBox="0 0 500 300" style="enable-background:new 0 0 500 300;" xml:space="preserve">
	<g transform="rotate(90 250 250)">
	<g transform="scale(0.5, 1)">
          <!-- <path d="M0 0 L500 0 L500 500 L0 500 Z" fill="none" stroke="black"/> -->
<path d="M10 100 h110 L50 10 Z" fill="blue"/>
 <path d="M490 100 h-110 L450 10 Z" fill="blue"/>
 <path d="M 50 50 
 		  Q50 150 250 250
          Q450 350 450 450" stroke="blue" stroke-width="35" fill="none" />

 <path d="M10 400 h110 L50 490 Z" fill="blue"/>
 <path d="M490 400 h-110 L450 490 Z" fill="blue"/>
  <path d="M 450 50 
  		  Q450 150 250 250
 		  Q50 350 50 450" stroke="blue" stroke-width="35" fill="none" />
           <!-- A -->
          <!-- <circle cx="50" cy="350" r="3" fill="blue"/> -->
           <!-- B -->
           <!-- <circle cx="450" cy="350" r="3" fill="blue"/> -->
           <!-- C -->
           <!-- <circle cx="450" cy="150" r="3" fill="blue"/> -->
           <!-- D -->
            <!-- <circle cx="50" cy="150" r="3" fill="blue"/> -->
		</g>
	</g>
</svg>

